# xmcd
#
# Track frame offsets:
#	150
#	13342
#	24250
#	36342
#	50050
#	62497
#	74497
#	88000
#	100690
#	115912
#	131062
#	142817
#	153885
#	165562
#	178522
#	190655
#	200602
#	215117
#	227950
#	241117
#	252772
#	264392
#	277762
#	289820
#
# Disc length: 4017 seconds
#
# Revision: 1
# Processed by: cddbd v1.4PL0 Copyright (c) Steve Scherf et al.
# Submitted via: audiograbber 1.80
#
DISCID=550faf18
DTITLE=Maxine Sullivan - Swing Street Vol. 1
DYEAR=1900
DGENRE=
TTITLE0=Loch Lomond
TTITLE1=I'm Coming Virginia
TTITLE2=Annie Laurie
TTITLE3=Blue Skies
TTITLE4=Mighty Like The Blues
TTITLE5=Woo-Woo
TTITLE6=Hot String Beans
TTITLE7=Jim Jam Stomp
TTITLE8=I'm Crazy 'Bout My Baby
TTITLE9=Dragging My Heart Around
TTITLE10=The Joint Is Jumpin'
TTITLE11=Off Time
TTITLE12=Choo-Choo
TTITLE13=The Wail Of The Scromph
TTITLE14=Swing Boy Swing
TTITLE15=Poor "Robinson Crusoe"
TTITLE16=Call Of The Delta
TTITLE17=Shanghai Shuffle
TTITLE18=Harlem Boogie
TTITLE19=After Tonight
TTITLE20=Don't Wake Up My Heart
TTITLE21=Where In The World
TTITLE22=In Any Language
TTITLE23=Rosie The Redskin
EXTD=
EXTT0=
EXTT1=
EXTT2=
EXTT3=
EXTT4=
EXTT5=
EXTT6=
EXTT7=
EXTT8=
EXTT9=
EXTT10=
EXTT11=
EXTT12=
EXTT13=
EXTT14=
EXTT15=
EXTT16=
EXTT17=
EXTT18=
EXTT19=
EXTT20=
EXTT21=
EXTT22=
EXTT23=
PLAYORDER=
